<?xml version="1.0" encoding="utf-8"?>
<!-- Generator: Adobe Illustrator 23.0.2, SVG Export Plug-In . SVG Version: 6.00 Build 0)  -->
<svg version="1.1" id="Layer_1" xmlns="http://www.w3.org/2000/svg" xmlns:xlink="http://www.w3.org/1999/xlink" x="0px" y="0px"
	 viewBox="0 0 337.16 444.84" style="enable-background:new 0 0 337.16 444.84;" xml:space="preserve">
<style type="text/css">
	.st0{fill:#008CCE;}
	.st1{fill:#FFFFFF;}
</style>
<g>
	<path d="M124.74,207.36c0,0-10.98-9.18-36.72-34.02s-28.26-34.56-28.26-34.56l6-7.2c0,0,13.08,17.55,22.8,28.8
		s26.28,32.04,32.4,37.17L124.74,207.36z"/>
	<path d="M328.01,334.13c-23.8,64.63-85.92,110.71-158.81,110.71C75.75,444.84,0,369.09,0,275.64c0-33.9,9.97-65.48,27.14-91.95
		c7.61-11.73,16.63-22.45,26.82-31.94c0.16,8.77,2.01,24.95,12.28,36.35c14.33,15.9,41.54,34.51,59.09,46.12
		c0.53,0.36,1.06,0.7,1.57,1.04l1.02,4.32c0,0-0.35-0.14-1.03-0.43c-4.12-1.76-20.19-9.04-39.23-22.97
		c-19.98-13.86-21.78-20.43-23.85-24.3c0,0,0.09,18.9,3.69,29.34c3.6,10.44,8.82,20.16,30.06,28.98
		c16.31,6.77,33.99,11.63,41.33,13.53c2.22,0.57,3.49,0.87,3.49,0.87l0.09,2.61c0,0-0.44-0.08-1.24-0.22h-0.01
		c-4.93-0.9-23.4-4.26-38.14-7.25c-17.16-3.48-23.88-12.84-25.68-15.12c0,0,3.6,17.52,13.2,25.32c9.6,7.8,13.32,10.2,39.12,13.32
		c12.79,1.55,22.04,2.83,28.12,3.73c0.05,0,0.1,0.01,0.15,0.02H158c6.07,0.9,8.92,1.41,8.92,1.41l-3,1.74c0,0-0.61-0.01-1.68-0.03
		c-4.76-0.08-18.65-0.42-29.22-1.59c-12.96-1.44-27.54-4.41-27.54-4.41s12.51,23.85,34.65,23.13c21.53-0.7,28.85-0.55,46.37-7.41
		c0.5-0.2,1-0.39,1.51-0.6l6.93,2.16c0,0-30.3,25.17-137.1,24.69c0,0,8.88,15.6,32.04,16.8c0,0-6.72,1.92-19.08,0.12
		c0,0,8.16,15.48,27.36,14.16c0,0-2.1,3.36-13.5,3.54c0,0,8.58,7.92,27.21,7.2c0,0-0.9,4.5-11.7,6.3c0,0,6.93,7.38,24.48,2.61
		c0,0-0.99,3.69-9.9,8.46c0,0,19.35,3.24,26.64-3.33c0,0,0.75,6.42-4.47,11.7c0,0,8.79-0.63,17.07-7.92
		c8.28-7.29,17.55-20.79,25.2-22.32c3.15-0.54,10.35,4.95,13.5,10.44c3.15,5.49,3.96,8.55,5.04,9.36
		c1.08,0.81,20.61,9.36,35.19,14.04c0,0-3.69,11.88,0.54,21.15c0,0,2.88-12.42,8.73-16.83c5.85-4.41,11.52-3.69,20.7-2.43
		c0,0-6.3-15.21-21.15-8.19c0,0-10.89-5.31-14.58-7.74s-9.18-11.34-0.36-20.43c8.82-9.09,50.16-34.53,100.8-28.53L328.01,334.13z"/>
	<path d="M53.96,151.75l-0.08-6.37c0,0-28.32,33-35.88,59.28s21.06-19.62,21.06-19.62L53.96,151.75z"/>
	<path class="st0" d="M330,327.66c-4.56-6.36-15.96-9-17.76-10.56c-1.8-1.56-4.56-5.76-13.2-11.64c-8.64-5.88-30.36-9-31.68-9.72
		c-1.32-0.72-7.08-10.2-7.92-12.84c-0.84-2.64,4.92-37.44,2.52-42.48c-2.4-5.04-21.48-31.2-32.28-47.52
		c-10.8-16.32-44.4-65.28-57.12-85.2c-12.72-19.92-29.64-54.06-29.64-54.06c-6.48,14.58-6.12,34.62-6.12,34.62
		c1.68,26.64,7.2,30.48,31.92,65.52c23.95,33.94,64.67,74.98,67.2,77.53c-2.45-2.33-41.9-39.77-53.76-52.21
		c-12.24-12.84-30.6-33-40.2-47.52c-9.6-14.52-10.74-33.3-10.74-33.3c-5.94,16.2-8.1,37.26-2.7,55.26c5.4,18,30.06,35.1,38.52,42.84
		c8.26,7.56,61.96,51.39,64.47,53.45c-2.36-1.62-50.62-34.88-76.95-55.13c-27-20.76-28.29-31.26-28.29-31.26l-0.99,23.76
		c2.7,28.8,24.24,38.1,32.88,42.78c8.5,4.61,64.57,31.66,66.32,32.5c-11.84-4.83-66.89-26.14-66.89-26.14
		c-22.41-7.29-29.07-20.64-29.07-20.64c4.8,36.6,26.34,39.3,33.72,41.88c9.57,3.19,62.86,21.73,64.52,22.31
		c-21.63-2.59-83.9-22.61-83.9-22.61s5.94,17.46,27.42,24.42c29.88,10.44,63.27,12.51,63.27,12.51c-15.57-0.27-52.2-2.43-52.2-2.43
		c1.35,2.34,13.59,9.63,13.59,9.63c-3.13-0.42-5.93-0.95-8.44-1.56c-13.75-3.33-18.61-8.83-18.61-8.83
		c-2.2,0.22-4.09-0.21-5.65-0.89c-2.1-0.91-3.59-2.27-4.38-3.13l-0.02-0.01c0.05,0,0.1,0.01,0.15,0.02H158l1.55,0.05
		c3.03,0.86,5.09,0.46,5.09,0.46c-9.65-5.35-17.33-12.43-23.41-20.53h-0.01c-0.81-1.07-1.58-2.16-2.33-3.26
		c-5.18-7.61-9.08-15.98-12-24.58c-0.56-1.64-1.08-3.28-1.56-4.93c-3.14-10.61-4.89-21.41-5.79-31.41c-0.22-2.4-0.39-4.76-0.51-7.05
		c-1.18-21.3,1.21-37.42,1.21-37.42c-25.2-29.1-59.16-83.16-59.16-83.16c7.08,7.44,31.8,27.96,31.8,27.96
		C145.94,53.42,168.84,0,168.84,0c50.28,97.38,89.64,99.9,137.64,176.58C356.88,261.06,330,327.66,330,327.66z"/>
</g>
</svg>
